<?xml version="1.0" encoding="UTF-8"?>
<svg xmlns="http://www.w3.org/2000/svg" version="1.1" xmlns:xlink="http://www.w3.org/1999/xlink" viewBox="0 0 141.73 141.73">
  <defs>
    <style>
      .cls-1 {
        fill: #fff;
      }

      .cls-2 {
        fill: url(#radial-gradient);
      }

      .cls-3 {
        fill: none;
        stroke: #ffca61;
        stroke-miterlimit: 10;
        stroke-width: .25px;
      }
    </style>
    <radialGradient id="radial-gradient" cx="71.29" cy="70.97" fx="71.29" fy="70.97" r="66.67" gradientUnits="userSpaceOnUse">
      <stop offset="0" stop-color="#1e634b"/>
      <stop offset="1" stop-color="#0c4332"/>
    </radialGradient>
  </defs>
  <!-- Generator: Adobe Illustrator 28.6.0, SVG Export Plug-In . SVG Version: 1.2.0 Build 578)  -->
  <g>
    <g id="Layer_1">
      <circle class="cls-2" cx="71.29" cy="70.97" r="66.67"/>
      <circle class="cls-3" cx="71.29" cy="70.97" r="62.93"/>
      <g>
        <path class="cls-1" d="M64,50.14c.6-.01,1.1-.52,1.1-1.14v-2.45c0-.49-.31-.91-.74-1.07-.13.13-.31.21-.51.21h-.49c-.2,0-.38-.08-.51-.21-.43.16-.74.58-.74,1.07v2.45c0,.63.51,1.14,1.12,1.14h.75s.01,0,.02,0c0,0,0,0,0,0h0Z"/>
        <path class="cls-1" d="M62.86,42.59c-.15.13-.24.33-.24.55v1.61c0,.41.33.74.74.74h.49c.4,0,.73-.33.73-.74v-1.61c0-.11-.02-.21-.07-.3.4,0,.81-.07,1.21-.18,1.31-.36,2.36-1.21,3-2.31-.47.34-1,.6-1.59.76-2.67.74-5.42-.86-6.15-3.56-.37-1.38-.13-2.78.54-3.92-1.67,1.2-2.51,3.36-1.95,5.46.46,1.72,1.73,2.99,3.29,3.5Z"/>
        <path class="cls-1" d="M47.47,89.34c-.13-2.68-.84-4.76-2.12-6.24-2.4-2.4-5.13-3.55-8.19-3.47-3.5.1-6.07,1.13-7.72,3.1-.78.9-1.39,1.97-1.82,3.22-.4,1.16-.6,2.3-.6,3.4.15,2.31.85,4.16,2.1,5.54,1.75,2.13,4.26,3.2,7.54,3.2,3.51,0,6.4-1.12,8.67-3.37,1.33-1.38,2.05-3.17,2.15-5.37ZM40.71,92.39c-.55,1.02-1.35,1.81-2.32,2.15-1.19.41-2.42.11-3.39-.75-1.08-.96-1.83-2.62-1.83-4.74,0-4.04,2.71-6.37,5.22-5.5,1.9.66,3.14,3.07,3.14,5.5,0,1.19-.29,2.37-.82,3.34ZM32.89,87.03c-.15.61-.23,1.29-.23,2.01,0-.08,0-.15,0-.23,0-.63.08-1.22.23-1.78ZM41.71,89.22c0-.06,0-.12,0-.18,0-.62-.08-1.25-.22-1.85.16.63.24,1.22.24,1.77,0,.09,0,.17-.02.26Z"/>
        <path class="cls-1" d="M56.75,80.07h-5.74v15.46c0,1.78-.4,3.11-1.2,4-1.13,1.13-2.48,1.7-4.05,1.7-.25,0-.5-.02-.75-.05l-.07,3.95h1c3.31,0,5.9-.74,7.77-2.22,2.06-1.91,3.1-4.25,3.1-6.99,0-.37-.02-.74-.05-1.12v-14.71Z"/>
        <rect class="cls-1" x="80.86" y="73.58" width="4.99" height="4.1"/>
        <rect class="cls-1" x="38.3" y="73.58" width="4.99" height="4.1"/>
        <rect class="cls-1" x="31.67" y="73.58" width="4.99" height="4.1"/>
        <path class="cls-1" d="M105.39,83.22h-.3c-3.5.1-6.08,1.13-7.74,3.1-.77.9-1.37,1.97-1.82,3.22-.4,1.16-.6,2.3-.6,3.4h-3.42l-5.32-.02c.66-.38,1.01-1.36,1.02-2.95v-9.91h-6.74v9.79c-.2,2.21-1.5,3.24-3.9,3.07h-6.04c-2.71-.3-4.01-1.82-3.9-4.54v-1.98h.02v-5.41h-.02s-.78-.49-.78-.49l-.8-.49.8-.49.78-.48h.02v-5.16h-.02s-.78-.49-.78-.49l-.8-.49.8-.49.78-.48h.02v-1.73s0,0,0,0v-4.04l-1.6-.98.8-.49.8-.49v-5.14l-1.6-.98.8-.49.8-.49v-5.4l-1.54-.88-1.12-.64s0,0,0,0c-.08.06-.17.1-.28.1h-.3c-.1,0-.2-.04-.28-.1l-1.12.64-1.54.88v5.4l.8.49.8.49-.8.49-.8.49v5.14l.8.49.8.49-.8.49-.8.49v1.72s0,0,0,0v4.04l1.6.98-1.6.98v5.14l1.6.98-1.6.98v5.4l-.02,4.33c.08,1.41.37,2.63.87,3.65,1.16,2.46,3.23,3.7,6.19,3.7h28.97c.25-.03.46.05.62.25,1.7,2.25,4.19,3.37,7.47,3.37,3.51,0,6.39-1.12,8.64-3.37,1.35-1.38,2.07-3.17,2.17-5.37-.15-2.68-.86-4.76-2.12-6.24-2.33-2.31-4.96-3.47-7.89-3.47ZM61.65,56.47v-4.02l.96-.56.96-.56.96.56.96.56v4.02l-.96.56-.96.56-.96-.56-.96-.56ZM61.65,63.69v-4.02l.96-.56.96-.56.96.56.96.56v4.02l-.96.56-.96.56-.96-.56-.96-.56ZM61.65,71.28v-1.47h0v-3.05l.96-.56.96-.56.96.56.96.56v1.47h0v3.05l-.96.56-.96.56-.96-.56-.96-.56ZM61.65,78.37v-4.02l.96-.56.96-.56.96.56.96.56v4.02l-.96.56-.96.56-.96-.56-.96-.56ZM61.65,81.57l.96-.56.96-.56.96.56.96.56v4.02l-.96.56-.96.56-.96-.56-.96-.56v-4.02ZM106.9,97.1c-.19.11-.39.19-.6.26-.96.31-1.95.18-2.8-.29-.2-.11-.4-.25-.59-.4-1.08-.89-1.83-2.41-1.83-4.37,0-2.22.96-3.87,2.27-4.68.85-.52,1.84-.69,2.81-.42,0,0,0,0,0,0,.04.01.08.02.12.04,1.9.61,3.14,2.82,3.14,5.06,0,1.09-.29,2.18-.82,3.08-.43.74-1.01,1.34-1.72,1.72ZM109.37,94.11c.15-.52.23-1.07.25-1.62,0,0,0,0,0-.01,0-.05,0-.11,0-.17,0-.14,0-.29-.01-.43.02.18.03.36.03.54,0,.6-.09,1.16-.26,1.7Z"/>
      </g>
      <g>
        <path class="cls-1" d="M48.49,120.56c-.02-.06-.03-.12-.05-.2-.02-.08-.03-.18-.04-.32,0-.13-.02-.31-.02-.52,0-.21,0-.49,0-.82s0-.61,0-.82c0-.21.01-.39.02-.52,0-.13.02-.24.04-.31.02-.07.03-.14.05-.2.11-.36.31-.64.58-.84.28-.2.63-.29,1.06-.29s.79.1,1.06.29c.27.2.47.48.59.84.02.06.03.13.05.2s.03.18.04.31c0,.13.02.31.02.52s0,.49,0,.82,0,.61,0,.82-.01.39-.02.52c0,.13-.02.24-.04.32-.02.08-.03.14-.05.2-.12.36-.32.64-.59.84-.28.2-.63.29-1.06.29s-.79-.1-1.06-.29c-.27-.2-.47-.48-.58-.84ZM49.43,120.39c.11.31.34.46.71.46s.6-.15.72-.46c.02-.05.03-.1.04-.15,0-.06.02-.14.02-.26,0-.12,0-.28.01-.48,0-.2,0-.46,0-.78s0-.58,0-.78c0-.2,0-.36-.01-.48,0-.12-.01-.21-.02-.26,0-.06-.02-.11-.04-.15-.11-.31-.35-.46-.72-.46s-.6.15-.71.46c-.02.05-.03.1-.04.15,0,.06-.02.14-.02.26s0,.28-.01.48c0,.2,0,.46,0,.78s0,.59,0,.78c0,.2,0,.36.01.48s.01.21.02.26c0,.06.02.11.04.15Z"/>
        <path class="cls-1" d="M53.17,120.5c-.01-.05.01-.08.07-.1l.72-.18c.05,0,.08.02.1.07.06.16.15.3.28.4s.3.15.52.15c.16,0,.31-.04.44-.12.13-.08.22-.2.27-.35.03-.08.05-.17.06-.27s.02-.22.02-.37c0-.16,0-.29-.02-.38s-.03-.18-.06-.26c-.06-.17-.15-.29-.28-.37-.13-.07-.28-.11-.44-.11-.19,0-.35.04-.46.13-.12.09-.2.18-.24.27-.02.06-.06.08-.1.08h-.72c-.06,0-.08-.03-.08-.08v-3.12c0-.06.03-.08.08-.08h3.09c.06,0,.08.03.08.08v.68c0,.06-.03.08-.08.08h-2.24s-.05.02-.05.05v1.3h.03c.07-.06.18-.11.32-.17.14-.06.32-.09.53-.09.37,0,.69.08.95.25.26.17.44.41.54.73.04.13.07.26.09.41.02.15.03.34.03.58,0,.37-.04.67-.12.91-.11.34-.32.6-.61.78-.3.18-.64.27-1.02.27-.22,0-.43-.03-.62-.08s-.36-.14-.51-.24-.27-.23-.37-.37c-.1-.15-.16-.31-.2-.49Z"/>
        <path class="cls-1" d="M57.85,120.5c-.01-.05.01-.08.07-.1l.72-.18c.05,0,.08.02.1.07.06.16.15.3.28.4s.3.15.52.15c.16,0,.31-.04.44-.12.13-.08.22-.2.27-.35.03-.08.05-.17.06-.27s.02-.22.02-.37c0-.16,0-.29-.02-.38s-.03-.18-.06-.26c-.06-.17-.15-.29-.28-.37-.13-.07-.28-.11-.44-.11-.19,0-.35.04-.46.13-.12.09-.2.18-.24.27-.02.06-.06.08-.1.08h-.72c-.06,0-.08-.03-.08-.08v-3.12c0-.06.03-.08.08-.08h3.09c.06,0,.08.03.08.08v.68c0,.06-.03.08-.08.08h-2.24s-.05.02-.05.05v1.3h.03c.07-.06.18-.11.32-.17.14-.06.32-.09.53-.09.37,0,.69.08.95.25.26.17.44.41.54.73.04.13.07.26.09.41.02.15.03.34.03.58,0,.37-.04.67-.12.91-.11.34-.32.6-.61.78-.3.18-.64.27-1.02.27-.22,0-.43-.03-.62-.08s-.36-.14-.51-.24-.27-.23-.37-.37c-.1-.15-.16-.31-.2-.49Z"/>
        <path class="cls-1" d="M62.23,120.63v-.66s0-.07.03-.1l1.88-4s.06-.07.12-.07h.81c.06,0,.08.03.06.08l-1.84,3.96v.02h1.31s.05-.02.05-.05v-1.45c0-.06.03-.08.08-.08h.78c.06,0,.09.03.09.08v1.45s.02.05.05.05h.43c.06,0,.08.03.08.08v.68c0,.06-.03.08-.08.08h-.43s-.05.02-.05.05v.75c0,.06-.03.08-.09.08h-.78c-.06,0-.08-.03-.08-.08v-.75s-.02-.05-.05-.05h-2.28c-.06,0-.08-.03-.08-.08Z"/>
        <path class="cls-1" d="M67.03,120.45c-.01-.06.01-.09.07-.11l.74-.17c.05-.01.08,0,.1.06.06.17.16.32.31.43.14.12.33.18.57.18.27,0,.48-.08.63-.24.15-.16.22-.37.22-.62,0-.3-.08-.53-.26-.69-.17-.17-.4-.25-.69-.25h-.25c-.06,0-.08-.03-.08-.08v-.67c0-.06.03-.09.08-.09h.23c.26,0,.46-.08.61-.23s.23-.36.23-.61c0-.23-.07-.42-.2-.57s-.33-.22-.57-.22c-.22,0-.39.05-.51.16-.13.11-.21.25-.27.43-.02.05-.05.07-.1.06l-.72-.17c-.06-.01-.08-.05-.07-.1.03-.18.1-.34.19-.49.09-.15.21-.28.36-.39.14-.11.32-.2.51-.26s.41-.09.64-.09c.27,0,.51.04.72.12s.39.19.53.33.26.31.33.51.11.41.11.64-.05.47-.16.68c-.11.21-.27.38-.49.52v.02c.09.03.17.09.27.17.09.08.17.18.25.3s.13.26.18.41c.05.16.07.33.07.51,0,.27-.05.51-.14.72-.09.22-.22.4-.38.56-.16.15-.35.27-.58.35-.22.08-.46.12-.72.12-.45,0-.84-.11-1.17-.32-.32-.22-.53-.52-.62-.92Z"/>
        <path class="cls-1" d="M71.58,120.63v-.66s0-.07.03-.1l1.88-4s.06-.07.12-.07h.81c.06,0,.08.03.06.08l-1.84,3.96v.02h1.31s.05-.02.05-.05v-1.45c0-.06.03-.08.08-.08h.78c.06,0,.09.03.09.08v1.45s.02.05.05.05h.43c.06,0,.08.03.08.08v.68c0,.06-.03.08-.08.08h-.43s-.05.02-.05.05v.75c0,.06-.03.08-.09.08h-.78c-.06,0-.08-.03-.08-.08v-.75s-.02-.05-.05-.05h-2.28c-.06,0-.08-.03-.08-.08Z"/>
        <path class="cls-1" d="M76.26,120.63v-.66s0-.07.03-.1l1.88-4s.06-.07.12-.07h.81c.06,0,.08.03.06.08l-1.84,3.96v.02h1.31s.05-.02.05-.05v-1.45c0-.06.03-.08.08-.08h.78c.06,0,.09.03.09.08v1.45s.02.05.05.05h.43c.06,0,.08.03.08.08v.68c0,.06-.03.08-.08.08h-.43s-.05.02-.05.05v.75c0,.06-.03.08-.09.08h-.78c-.06,0-.08-.03-.08-.08v-.75s-.02-.05-.05-.05h-2.28c-.06,0-.08-.03-.08-.08Z"/>
        <path class="cls-1" d="M81.02,119.96c0-.33.07-.61.21-.85.14-.24.31-.42.51-.54v-.02c-.15-.1-.28-.25-.41-.45-.13-.21-.19-.45-.19-.73,0-.21.04-.42.12-.62.08-.2.19-.37.34-.53.15-.15.33-.28.55-.37.22-.09.46-.14.74-.14s.53.05.75.14c.22.09.4.21.55.37.15.15.26.33.34.53.08.2.11.41.11.62,0,.28-.06.53-.19.73-.13.2-.26.35-.41.45v.02c.2.12.37.3.51.54.14.24.21.52.21.85,0,.26-.05.49-.14.7s-.22.4-.39.55c-.17.15-.37.27-.6.36-.23.08-.48.13-.75.13s-.52-.04-.75-.13c-.23-.09-.42-.21-.59-.36s-.3-.34-.39-.55-.14-.45-.14-.7ZM81.98,119.92c0,.27.08.5.25.67.16.17.38.26.66.26s.5-.09.66-.26c.16-.17.25-.4.25-.67s-.08-.5-.25-.67c-.16-.17-.39-.26-.66-.26s-.49.09-.66.26c-.16.17-.25.4-.25.67ZM82.88,118.13c.24,0,.43-.08.57-.23.14-.16.21-.34.21-.55s-.07-.4-.21-.55c-.14-.15-.33-.23-.57-.23s-.43.08-.57.23c-.14.15-.21.34-.21.55s.07.39.21.55c.14.16.33.23.57.23Z"/>
        <path class="cls-1" d="M87.82,119.2l-.02-.02s-.1.04-.18.05-.16.02-.26.02c-.22,0-.43-.04-.63-.12-.2-.08-.37-.19-.53-.34s-.27-.33-.36-.54-.13-.45-.13-.72c0-.29.05-.56.14-.78.1-.23.23-.42.4-.57.17-.16.36-.27.59-.35s.46-.12.72-.12.5.04.73.12.42.2.58.35.29.34.39.56c.1.22.14.48.14.76,0,.23-.03.46-.11.69-.07.22-.16.44-.28.64l-1.51,2.72s-.06.05-.1.05h-.83c-.06,0-.08-.03-.05-.08l1.28-2.32ZM87.56,118.41c.27,0,.49-.08.65-.26.16-.17.24-.39.24-.66s-.08-.49-.24-.66c-.16-.17-.37-.26-.65-.26s-.49.09-.64.26c-.16.17-.24.39-.24.66s.08.5.24.66c.16.17.37.26.64.26Z"/>
        <path class="cls-1" d="M92.5,119.2l-.02-.02s-.1.04-.18.05-.16.02-.26.02c-.22,0-.43-.04-.63-.12-.2-.08-.37-.19-.53-.34s-.27-.33-.36-.54-.13-.45-.13-.72c0-.29.05-.56.14-.78.1-.23.23-.42.4-.57.17-.16.36-.27.59-.35s.46-.12.72-.12.5.04.73.12.42.2.58.35.29.34.39.56c.1.22.14.48.14.76,0,.23-.03.46-.11.69-.07.22-.16.44-.28.64l-1.51,2.72s-.06.05-.1.05h-.83c-.06,0-.08-.03-.05-.08l1.28-2.32ZM92.24,118.41c.27,0,.49-.08.65-.26.16-.17.24-.39.24-.66s-.08-.49-.24-.66c-.16-.17-.37-.26-.65-.26s-.49.09-.64.26c-.16.17-.24.39-.24.66s.08.5.24.66c.16.17.37.26.64.26Z"/>
      </g>
      <g>
        <path class="cls-1" d="M38.79,24.43c-.08,0-.12-.04-.12-.12v-.97c0-.08.04-.12.12-.12h1.85c.68,0,1.23.17,1.63.51s.6.9.6,1.67v1.15c0,.24.09.42.27.55.18.13.42.2.73.2h.21c.16,0,.28.04.37.13s.12.24.12.45c0,.24-.04.4-.12.49s-.2.13-.37.13c-.34,0-.64-.04-.88-.13s-.44-.28-.58-.56c-.16.28-.36.46-.63.55-.26.09-.6.14-1.02.14h-2.73c-.08,0-.12-.04-.12-.12v-.96c0-.08.04-.12.12-.12h2.27c.22,0,.39-.02.52-.05s.23-.09.3-.16c.07-.08.11-.18.13-.3.02-.12.03-.27.03-.45v-.82c0-.37-.1-.65-.31-.82-.21-.17-.52-.26-.93-.26h-1.46Z"/>
        <path class="cls-1" d="M44.73,24.2c.25-.28.55-.52.9-.71s.78-.28,1.28-.28c.54,0,1,.08,1.37.25.37.17.66.39.88.67.22.28.38.61.47.97.09.37.14.76.14,1.18,0,.06,0,.11,0,.16,0,.05,0,.1,0,.15.03.22.12.39.3.51.18.12.41.18.71.18h.21c.16,0,.29.04.37.13.08.09.12.24.12.45,0,.24-.04.4-.12.49s-.2.13-.37.13c-.34,0-.64-.04-.9-.13s-.45-.28-.59-.58c-.15.28-.37.46-.64.57-.27.1-.6.15-.99.15h-3.77c-.16,0-.28-.05-.37-.14s-.12-.25-.12-.47c0-.24.04-.39.12-.48.08-.08.2-.12.37-.12h3.24c.21,0,.38-.02.51-.05s.23-.09.3-.17c.07-.08.12-.19.15-.32.03-.13.04-.3.04-.49,0-.26-.03-.5-.07-.72s-.13-.41-.24-.57c-.11-.16-.26-.29-.45-.38s-.41-.14-.69-.14-.51.05-.73.16c-.22.11-.41.25-.58.43-.06.06-.11.06-.17.01l-.64-.66c-.06-.07-.07-.12-.02-.17ZM46.5,30.8c-.08,0-.12-.04-.12-.12v-1.05c0-.08.04-.12.12-.12h1.17c.08,0,.12.04.12.12v1.05c0,.08-.04.12-.12.12h-1.17Z"/>
        <path class="cls-1" d="M53.89,26.52c0,.26.07.45.2.57.13.12.35.18.64.18.2,0,.36-.01.48-.04.12-.03.2-.09.26-.18.06-.09.09-.21.1-.37s.02-.36.02-.62v-1.56c0-.08.04-.12.12-.12h1.13c.08,0,.12.04.12.12v2.03c0,.25.08.44.23.56.16.12.36.18.61.18.19,0,.34-.01.45-.04.11-.03.2-.09.26-.17.06-.09.1-.21.11-.37.02-.16.03-.36.03-.62v-2.53c0-.08.04-.12.12-.12h1.13c.08,0,.12.04.12.12v2.97c0,.24.09.43.27.56.18.13.43.2.74.2h.21c.16,0,.29.04.37.13.08.09.12.24.12.45,0,.24-.04.4-.12.49-.08.09-.2.13-.37.13-.32,0-.59-.04-.82-.12-.23-.08-.42-.25-.56-.51-.11.23-.28.39-.49.48-.21.09-.5.14-.87.14h-.53c-.28,0-.53-.05-.72-.16s-.35-.27-.46-.47c-.11.24-.28.4-.49.49-.22.09-.51.14-.87.14h-.54c-.58,0-.97-.21-1.18-.65-.11.24-.28.4-.49.5-.21.1-.5.15-.87.15h-1.32c-.09,0-.17,0-.24-.01-.07,0-.13-.03-.18-.07s-.08-.09-.11-.16c-.02-.07-.04-.17-.04-.3,0-.24.04-.41.12-.51.08-.1.2-.15.37-.15h.98c.15,0,.26-.02.33-.07.08-.04.13-.12.17-.21.04-.1.06-.22.06-.37,0-.15,0-.34,0-.56v-1.56c0-.08.04-.12.12-.12h1.13c.08,0,.12.04.12.12v2.01Z"/>
        <path class="cls-1" d="M62.5,25.81c0-.47.08-.87.2-1.2s.3-.6.52-.8c.22-.21.49-.36.79-.45.3-.09.63-.14.99-.14s.69.05,1,.15c.31.1.57.25.8.46.22.21.4.49.52.84.13.35.19.77.19,1.27v.21c0,.07,0,.14-.01.2,0,.34.09.58.24.73.15.14.32.21.52.21h.35c.16,0,.28.04.37.13s.12.24.12.45c0,.24-.04.4-.12.49s-.2.13-.37.13c-.14,0-.28,0-.43-.01-.15,0-.3-.03-.45-.08-.15-.04-.29-.11-.43-.19-.13-.09-.25-.21-.36-.36-.22.26-.49.45-.82.56-.33.11-.7.17-1.11.17s-.77-.05-1.1-.16c-.33-.11-.6-.29-.82-.54-.08.13-.18.24-.29.32-.11.08-.23.14-.35.19s-.25.08-.38.09-.25.02-.37.02h-.43c-.16,0-.28-.05-.37-.14s-.12-.25-.12-.47c0-.24.04-.39.12-.48.08-.08.2-.12.37-.12h.48c.19,0,.37-.08.52-.24.16-.16.24-.45.24-.87,0-.07-.01-.13-.01-.18v-.18ZM65,24.43c-.39,0-.68.13-.87.38-.19.25-.28.62-.28,1.1,0,.52.09.89.28,1.12.19.23.48.34.87.34s.69-.12.88-.35.28-.6.28-1.11c0-.98-.39-1.47-1.16-1.47Z"/>
        <path class="cls-1" d="M68.59,28.49c-.16,0-.28-.04-.37-.12-.08-.08-.12-.23-.12-.47s.04-.39.12-.48.2-.14.37-.14h.6c.2,0,.35-.05.45-.14.09-.09.14-.26.14-.51v-6.31c0-.08.04-.12.12-.12h1.13c.08,0,.12.04.12.12v6.63c0,.53-.11.92-.33,1.16s-.58.37-1.1.37h-1.13Z"/>
        <path class="cls-1" d="M74.11,28.37c0,.08-.04.12-.12.12h-1.13c-.08,0-.12-.04-.12-.12v-8.04c0-.08.04-.12.12-.12h1.13c.08,0,.12.04.12.12v8.04Z"/>
        <path class="cls-1" d="M81.88,23.21v-.52c0-.08.04-.12.12-.12h1.12c.08,0,.12.04.12.12v3.95c0,.24.05.41.14.51.09.09.24.14.45.14h.46c.32,0,.49.2.49.61,0,.24-.04.4-.12.48-.08.08-.2.12-.37.12h-.99c-.4,0-.71-.07-.93-.21-.22-.14-.37-.38-.44-.73-.17.15-.37.26-.61.33s-.48.11-.74.11c-.32,0-.62-.04-.9-.13-.28-.09-.53-.23-.73-.41-.21-.19-.37-.42-.49-.71-.12-.29-.18-.64-.18-1.04,0-.47.07-.87.2-1.18.13-.32.31-.57.54-.76.22-.19.48-.33.76-.41.28-.08.58-.12.89-.12h1.22ZM79.55,21.72c-.08,0-.12-.04-.12-.12v-1.05c0-.08.04-.12.12-.12h1.02c.08,0,.12.04.12.12v1.05c0,.08-.04.12-.12.12h-1.02ZM80.73,26.78c.39,0,.68-.11.87-.34.19-.22.28-.55.28-.98v-1.04h-1.08c-.35,0-.63.09-.84.27-.21.18-.32.51-.32.99,0,.37.1.65.29.83s.46.27.8.27ZM81.13,21.72c-.08,0-.12-.04-.12-.12v-1.05c0-.08.04-.12.12-.12h1.02c.08,0,.12.04.12.12v1.05c0,.08-.04.12-.12.12h-1.02Z"/>
        <path class="cls-1" d="M85.62,27.28c-.16-.19-.3-.41-.4-.66-.11-.25-.16-.56-.16-.91,0-.28.05-.57.13-.87.09-.3.24-.57.45-.8.21-.24.48-.44.82-.59s.75-.23,1.25-.23c.54,0,.99.09,1.36.27.37.18.67.41.88.69.04.07.03.12-.04.17l-.66.68c-.06.06-.11.05-.17-.01-.36-.39-.79-.58-1.29-.58-.41,0-.73.12-.96.37-.22.24-.34.57-.34.99,0,.24.04.45.12.63s.17.32.27.44c.1.12.21.22.32.29.11.07.2.12.26.14h2.65c.08,0,.12.04.12.12v.96c0,.08-.04.12-.12.12h-5.67c-.16,0-.28-.05-.37-.14s-.12-.25-.12-.47c0-.24.04-.39.12-.48.08-.08.2-.12.37-.12h1.18Z"/>
        <path class="cls-1" d="M91.54,20.32c0-.08.04-.12.12-.12h1.13c.08,0,.12.04.12.12v6.31c0,.24.05.41.14.51.09.09.24.14.44.14h.43c.16,0,.28.05.37.14.08.09.12.25.12.48,0,.25-.04.41-.11.48-.08.07-.2.1-.37.1h-.96c-.51,0-.88-.12-1.1-.37s-.33-.64-.33-1.16v-6.63Z"/>
        <path class="cls-1" d="M96.85,26.52c0,.5.29.76.88.76.18,0,.32-.01.43-.03.11-.02.19-.06.25-.12s.1-.15.12-.27c.02-.12.03-.29.03-.5v-1.84c0-.08.04-.12.12-.12h1.13c.08,0,.12.04.12.12v2c0,.26.08.45.23.58.16.13.36.19.62.19.19,0,.35-.01.46-.04s.2-.09.25-.17c.05-.09.09-.2.1-.36.02-.15.03-.36.03-.62v-2.53c0-.08.04-.12.12-.12h1.13c.08,0,.12.04.12.12v3.4c0,.56-.12.96-.35,1.19-.23.23-.62.35-1.18.35h-.53c-.28,0-.53-.05-.72-.16s-.35-.27-.46-.47c-.11.24-.28.4-.49.49-.22.09-.51.14-.87.14h-.54c-.58,0-.97-.21-1.18-.65-.11.24-.28.4-.49.5-.21.1-.51.15-.88.15h-1.39c-.16,0-.28-.04-.37-.12-.08-.08-.12-.22-.12-.43,0-.24.04-.41.12-.51.08-.1.2-.15.37-.15h.98c.25,0,.41-.07.48-.2.06-.13.1-.38.1-.73v-1.84c0-.08.04-.12.12-.12h1.13c.08,0,.12.04.12.12v2.01Z"/>
      </g>
    </g>
  </g>
</svg>